<?xml version="1.0" encoding="UTF-8"?>
<!DOCTYPE svg PUBLIC "-//W3C//DTD SVG 1.1//EN" "http://www.w3.org/Graphics/SVG/1.1/DTD/svg11.dtd">
<svg xmlns="http://www.w3.org/2000/svg" version="1.1" width="237px" height="136px" style="shape-rendering:geometricPrecision; text-rendering:geometricPrecision; image-rendering:optimizeQuality; fill-rule:evenodd; clip-rule:evenodd" xmlns:xlink="http://www.w3.org/1999/xlink">
<g><path style="opacity:0.998" fill="#111111" d="M 150.5,63.5 C 148.067,64.5477 148.067,65.2144 150.5,65.5C 166.713,68.0534 182.713,71.5534 198.5,76C 202.17,79.8203 206.17,83.1537 210.5,86C 208.792,88.0435 206.792,89.7101 204.5,91C 210.5,95.6667 216.5,100.333 222.5,105C 217.555,106.763 212.555,106.763 207.5,105C 203.136,101.492 198.803,97.9917 194.5,94.5C 194.19,93.2617 193.69,93.2617 193,94.5C 192.503,97.146 192.336,99.8127 192.5,102.5C 192.813,105.247 192.48,107.914 191.5,110.5C 187.629,110.344 183.629,110.677 179.5,111.5C 176.484,117.531 173.484,123.531 170.5,129.5C 165.445,130.829 160.445,130.662 155.5,129C 154.978,128.439 154.645,127.772 154.5,127C 160.782,114.696 167.116,102.363 173.5,90C 157.465,85.1925 141.132,82.1925 124.5,81C 99.5257,92.0473 74.1924,102.214 48.5,111.5C 45.7574,111.072 43.4241,109.905 41.5,108C 54.6666,98.9135 68.3332,90.5801 82.5,83C 86.2171,79.6153 90.2171,76.6153 94.5,74C 93.0506,72.883 91.3839,72.2163 89.5,72C 71.4387,70.7605 53.4387,68.9272 35.5,66.5C 33.0124,67.2547 31.0124,68.7547 29.5,71C 26.8333,71.6667 24.1667,71.6667 21.5,71C 19.5356,68.8325 19.2022,66.4992 20.5,64C 15.6938,61.6938 12.0271,58.1938 9.5,53.5C 13.8834,47.7976 19.55,43.7976 26.5,41.5C 29.1522,41.5905 31.4855,40.9238 33.5,39.5C 39.1453,38.2367 44.812,38.4033 50.5,40C 71.0893,47.4184 92.0893,53.4184 113.5,58C 116.167,58.6667 118.833,58.6667 121.5,58C 151.5,39.3333 181.5,20.6667 211.5,2C 215.07,1.19647 218.237,2.0298 221,4.5C 221.825,6.7008 221.325,8.53413 219.5,10C 196.314,27.697 173.314,45.5303 150.5,63.5 Z"/></g>
<g><path style="opacity:0.992" fill="#717172" d="M 33.5,39.5 C 31.4855,40.9238 29.1522,41.5905 26.5,41.5C 28.5145,40.0762 30.8478,39.4095 33.5,39.5 Z"/></g>
<g><path style="opacity:0.204" fill="#d8d8d9" d="M 150.5,63.5 C 150.5,64.1667 150.5,64.8333 150.5,65.5C 148.067,65.2144 148.067,64.5477 150.5,63.5 Z"/></g>
<g><path style="opacity:0.188" fill="#a4a4a4" d="M 194.5,94.5 C 193.922,97.2804 193.255,99.9471 192.5,102.5C 192.336,99.8127 192.503,97.146 193,94.5C 193.69,93.2617 194.19,93.2617 194.5,94.5 Z"/></g>
</svg>
